<svg width="25" height="20" viewBox="0 0 25 20" fill="none" xmlns="http://www.w3.org/2000/svg">
<path d="M13.7905 11.2079H19.7905V12.4079H13.7905V11.2079ZM19.7905 5.20787H5.39045V8.80787H19.7905V5.20787ZM13.7905 14.8079H19.7905V13.6079H13.7905V14.8079ZM24.5905 0.407867V16.0079C24.5905 17.9963 22.9789 19.6079 20.9905 19.6079H4.19045C2.20205 19.6079 0.590454 17.9963 0.590454 16.0079V0.407867H24.5905ZM22.1905 2.80787H2.99045V16.0079C2.99045 16.6703 3.52925 17.2079 4.19045 17.2079H20.9905C21.6517 17.2079 22.1905 16.6703 22.1905 16.0079V2.80787ZM11.3905 11.2079H5.39045V14.8079H11.3905V11.2079Z" fill="black" fill-opacity="0.54"/>
</svg>
