<svg width="23" height="16" viewBox="0 0 23 16" fill="none" xmlns="http://www.w3.org/2000/svg">
<path d="M20.5905 12.7579V3.75787C20.5905 2.09787 19.2505 0.757874 17.5905 0.757874H5.59045C3.93045 0.757874 2.59045 2.09787 2.59045 3.75787V12.7579H0.590454V13.7579C0.590454 14.8579 1.49045 15.7579 2.59045 15.7579H20.5905C21.6905 15.7579 22.5905 14.8579 22.5905 13.7579V12.7579H20.5905ZM10.5905 1.75787H12.5905V2.75787H10.5905V1.75787ZM18.5905 12.7579H13.5905C13.5905 13.3079 13.1405 13.7579 12.5905 13.7579H10.5905C10.0405 13.7579 9.59045 13.3079 9.59045 12.7579H4.59045V4.75787C4.59045 4.20787 5.04045 3.75787 5.59045 3.75787H17.5905C18.1405 3.75787 18.5905 4.20787 18.5905 4.75787V12.7579Z" fill="black" fill-opacity="0.6"/>
</svg>
