<svg width="21" height="20" viewBox="0 0 21 20" fill="none" xmlns="http://www.w3.org/2000/svg">
<path d="M12.425 11.852C12.7984 11.4785 13.3182 11.2464 13.8885 11.2464C14.8373 11.2464 15.6347 11.8823 15.8819 12.7503C16.0132 13.2196 16.3109 13.6234 16.6995 13.8908L20.5804 10.0099L16.6995 6.12901L16.7601 6.04321C17.0275 5.69499 17.406 5.43256 17.8401 5.31144C18.7081 5.06416 19.344 4.26678 19.344 3.318C19.344 2.74773 19.1118 2.22792 18.7384 1.85447C18.3649 1.48101 17.8451 1.24887 17.2748 1.24887C16.326 1.24887 15.5287 1.88475 15.2814 2.75278C15.1603 3.18679 14.8978 3.56529 14.5496 3.83277L14.4638 3.89333L10.5779 0.00738525L6.69702 3.88828C6.96954 4.28192 7.36823 4.57463 7.83757 4.71089C8.7056 4.95818 9.34148 5.75555 9.34148 6.70433C9.34148 7.2746 9.10933 7.79441 8.73588 8.16787C8.36242 8.54132 7.84262 8.77347 7.27234 8.77347C6.32356 8.77347 5.52619 8.13758 5.2789 7.26956C5.14769 6.80021 4.84993 6.39648 4.46134 6.12901L0.580444 10.0049L4.46134 13.8858L4.40078 13.9716C4.1333 14.3198 3.7548 14.5822 3.32079 14.7033C2.45276 14.9506 1.81688 15.748 1.81688 16.6968C1.81688 17.2671 2.04902 17.7869 2.42248 18.1603C2.79593 18.5338 3.31574 18.7659 3.88602 18.7659C4.83479 18.7659 5.63217 18.13 5.87946 17.262C6.00058 16.828 6.263 16.4495 6.61122 16.182L6.69702 16.1215L10.5779 20.0024L14.4588 16.1215C14.1863 15.7278 13.7876 15.4351 13.3182 15.2989C12.4502 15.0516 11.8143 14.2542 11.8143 13.3054C11.8143 12.7351 12.0465 12.2153 12.4199 11.8419L12.425 11.852Z" fill="black" fill-opacity="0.54"/>
</svg>
