<svg width="25" height="18" viewBox="0 0 25 18" fill="none" xmlns="http://www.w3.org/2000/svg">
<path fill-rule="evenodd" clip-rule="evenodd" d="M23.5905 0.00787354H1.59045C1.32524 0.00787354 1.07088 0.11323 0.883347 0.300767C0.695811 0.488303 0.590454 0.742657 0.590454 1.00787L0.590454 17.0079C0.590454 17.2731 0.695811 17.5274 0.883347 17.715C1.07088 17.9025 1.32524 18.0079 1.59045 18.0079H23.5905C23.8557 18.0079 24.11 17.9025 24.2976 17.715C24.4851 17.5274 24.5905 17.2731 24.5905 17.0079V1.00787C24.5905 0.742657 24.4851 0.488303 24.2976 0.300767C24.11 0.11323 23.8557 0.00787354 23.5905 0.00787354ZM2.59045 16.0079H22.5905V2.00787H2.59045V16.0079Z" fill="black" fill-opacity="0.6"/>
<path fill-rule="evenodd" clip-rule="evenodd" d="M4.59045 6.00787H10.5905V4.00787H4.59045V6.00787ZM4.59045 10.0079H10.5905V8.00787H4.59045V10.0079ZM4.59045 14.0079H10.5905V12.0079H4.59045V14.0079ZM2.59045 16.0079H12.5905V2.00787H2.59045V16.0079Z" fill="black" fill-opacity="0.15"/>
<path fill-rule="evenodd" clip-rule="evenodd" d="M14.5905 6.00787H20.5905V4.00787H14.5905V6.00787ZM14.5905 10.0079H20.5905V8.00787H14.5905V10.0079ZM20.5905 14.0079H14.5905V12.0079H20.5905V14.0079Z" fill="black" fill-opacity="0.36"/>
<path fill-rule="evenodd" clip-rule="evenodd" d="M10.5905 4.54188V13.4749C10.5905 13.5259 10.6046 13.5759 10.631 13.6195C10.6575 13.6632 10.6953 13.6987 10.7405 13.7224C10.7857 13.7461 10.8365 13.757 10.8874 13.7539C10.9383 13.7508 10.9875 13.7338 11.0295 13.7049L17.4625 9.26888C17.5037 9.23933 17.537 9.20003 17.5593 9.15449C17.5816 9.10894 17.5923 9.05857 17.5905 9.00788C17.5924 8.95732 17.5817 8.90709 17.5593 8.8617C17.537 8.81632 17.5037 8.7772 17.4625 8.74788L11.0295 4.31088C10.9875 4.28191 10.9383 4.26496 10.8874 4.26187C10.8365 4.25878 10.7857 4.26965 10.7405 4.29333C10.6953 4.31701 10.6575 4.35258 10.631 4.39621C10.6046 4.43984 10.5905 4.49086 10.5905 4.54188Z" fill="black" fill-opacity="0.6"/>
</svg>
