<svg width="19" height="20" viewBox="0 0 19 20" fill="none" xmlns="http://www.w3.org/2000/svg">
<path d="M9.58545 14.0079V20.0079H0.585449V14.0079C0.585449 12.3079 1.88545 11.0079 3.58545 11.0079H6.58545C8.28545 11.0079 9.58545 12.3079 9.58545 14.0079ZM15.0854 11.0079C16.9854 11.0079 18.5854 9.40787 18.5854 7.50787C18.5854 5.60787 16.9854 4.00787 15.0854 4.00787C13.1854 4.00787 11.5854 5.60787 11.5854 7.50787C11.5854 9.40787 13.1854 11.0079 15.0854 11.0079ZM16.0854 13.0079H14.0854C12.6854 13.0079 11.5854 14.1079 11.5854 15.5079V20.0079H18.5854V15.5079C18.5854 14.1079 17.4854 13.0079 16.0854 13.0079ZM5.08545 0.00787354C2.58545 0.00787354 0.585449 2.00787 0.585449 4.50787C0.585449 7.00787 2.58545 9.00787 5.08545 9.00787C7.58545 9.00787 9.58545 7.00787 9.58545 4.50787C9.58545 2.00787 7.58545 0.00787354 5.08545 0.00787354Z" fill="black" fill-opacity="0.6"/>
</svg>
