<svg width="21" height="18" viewBox="0 0 21 18" fill="none" xmlns="http://www.w3.org/2000/svg">
<path d="M15.5804 4.00787V3.00787C15.5804 1.30787 14.2804 0.00787354 12.5804 0.00787354H8.58044C6.88044 0.00787354 5.58044 1.30787 5.58044 3.00787V4.00787H0.580444V8.00787C0.580444 9.70787 1.88044 11.0079 3.58044 11.0079H17.5804C19.2804 11.0079 20.5804 9.70787 20.5804 8.00787V4.00787H15.5804ZM7.58044 3.00787C7.58044 2.40787 7.98044 2.00787 8.58044 2.00787H12.5804C13.1804 2.00787 13.5804 2.40787 13.5804 3.00787V4.00787H7.58044V3.00787ZM17.5804 12.0079C18.7804 12.0079 19.8804 11.5079 20.5804 10.6079V15.0079C20.5804 16.7079 19.2804 18.0079 17.5804 18.0079H3.58044C1.88044 18.0079 0.580444 16.7079 0.580444 15.0079V10.6079C1.28044 11.5079 2.38044 12.0079 3.58044 12.0079H17.5804Z" fill="black" fill-opacity="0.6"/>
</svg>
